{
	"patcher" : 	{
		"fileversion" : 1,
		"appversion" : 		{
			"major" : 5,
			"minor" : 1,
			"revision" : 9
		}
,
		"rect" : [ 317.0, 80.0, 861.0, 540.0 ],
		"bglocked" : 0,
		"defrect" : [ 317.0, 80.0, 861.0, 540.0 ],
		"openrect" : [ 0.0, 0.0, 0.0, 0.0 ],
		"openinpresentation" : 0,
		"default_fontsize" : 12.0,
		"default_fontface" : 0,
		"default_fontname" : "Arial",
		"gridonopen" : 0,
		"gridsize" : [ 15.0, 15.0 ],
		"gridsnaponopen" : 0,
		"toolbarvisible" : 1,
		"boxanimatetime" : 200,
		"imprint" : 0,
		"enablehscroll" : 1,
		"enablevscroll" : 1,
		"devicewidth" : 0.0,
		"boxes" : [ 			{
				"box" : 				{
					"fontname" : "Arial",
					"fontsize" : 12.0,
					"id" : "obj-5",
					"maxclass" : "comment",
					"numinlets" : 1,
					"numoutlets" : 0,
					"patching_rect" : [ 187.0, 367.0, 150.0, 20.0 ],
					"text" : "Position of right hand"
				}

			}
, 			{
				"box" : 				{
					"fontname" : "Arial",
					"fontsize" : 12.0,
					"id" : "obj-4",
					"maxclass" : "comment",
					"numinlets" : 1,
					"numoutlets" : 0,
					"patching_rect" : [ 183.0, 197.0, 150.0, 20.0 ],
					"text" : "Euler rotation of right hand"
				}

			}
, 			{
				"box" : 				{
					"fontname" : "Arial",
					"fontsize" : 12.0,
					"id" : "obj-20",
					"maxclass" : "newobj",
					"numinlets" : 1,
					"numoutlets" : 2,
					"outlettype" : [ "", "" ],
					"patching_rect" : [ 37.0, 197.0, 141.0, 20.0 ],
					"text" : "OSC-route /Xsens/11/rot"
				}

			}
, 			{
				"box" : 				{
					"fontname" : "Arial",
					"fontsize" : 12.0,
					"id" : "obj-19",
					"linecount" : 4,
					"maxclass" : "comment",
					"numinlets" : 1,
					"numoutlets" : 0,
					"patching_rect" : [ 38.0, 10.0, 166.0, 62.0 ],
					"text" : "Toggles on/off the UDP reiciver on port 7000. Notice that the patch will hault if no packagdes are recieved."
				}

			}
, 			{
				"box" : 				{
					"fontname" : "Arial",
					"fontsize" : 12.0,
					"id" : "obj-17",
					"linecount" : 11,
					"maxclass" : "comment",
					"numinlets" : 1,
					"numoutlets" : 0,
					"patching_rect" : [ 208.0, 10.0, 641.0, 158.0 ],
					"text" : "Xsens MVN datagram unpacker implemented in javascript (MXJ)\n\nThis a slow way of using the Xsens UDP datagram stream (mxj?). The Xsens network stream also experience heavy data frame losses. It is therefore recommended to use the Xsens MVN SDK for real time applications. However, this patch may be an easy starting point for using the Xsens data inside MAX MSP.\n\nThe data output from 'mxj XsensUDP2' has the following format: \"/Xsens/segID/type f1 f2 f3\", where segID is the segmenst ID going from 1 to 23 (see mapping on the left), type is pos or rot and f1 to f3 are the data parameters. This version supports only Euler angles, and it will only work correctly if MVN Studios network stream is configured to send data as Euler angles and on port 7000. If you want the data as quaterninons or rotation matrixes you need to do minor changes in XsensUDP2.java file. For more information see Xsens docs, Xsens papers or contact savskogs."
				}

			}
, 			{
				"box" : 				{
					"fontname" : "Arial",
					"fontsize" : 12.0,
					"id" : "obj-15",
					"linecount" : 25,
					"maxclass" : "comment",
					"numinlets" : 1,
					"numoutlets" : 0,
					"patching_rect" : [ 675.0, 178.0, 44.0, 351.0 ],
					"text" : "segID\n--------\n1\n2\n3\n4\n5\n6\n7\n8\n9\n10\n11\n12\n13\n14\n15\n16\n17\n18\n19\n20\n21\n22\n23"
				}

			}
, 			{
				"box" : 				{
					"fontname" : "Arial",
					"fontsize" : 12.0,
					"id" : "obj-10",
					"linecount" : 25,
					"maxclass" : "comment",
					"numinlets" : 1,
					"numoutlets" : 0,
					"patching_rect" : [ 714.0, 178.0, 134.0, 351.0 ],
					"text" : "Segment name:\n---------------------\npelvis\nl5\nl3\nt12\nt8\nneck\nhead\nright_shoulder\nright_upper_arm\nright_fore_arm\nright_hand\nleft_shoulder\nleft_upper_arm\nleft_fore_arm\nleft_hand\nright_upper_leg\nright_lower_leg\nright_foot\nright_toe\nleft_upper_leg\nleft_lower_leg\nleft_foot\nleft_toe"
				}

			}
, 			{
				"box" : 				{
					"candycane" : 3,
					"id" : "obj-1",
					"maxclass" : "multislider",
					"numinlets" : 1,
					"numoutlets" : 2,
					"outlettype" : [ "", "" ],
					"patching_rect" : [ 37.0, 227.0, 328.0, 120.0 ],
					"setminmax" : [ -180.0, 180.0 ],
					"setstyle" : 2,
					"size" : 3
				}

			}
, 			{
				"box" : 				{
					"id" : "obj-137",
					"maxclass" : "multislider",
					"numinlets" : 1,
					"numoutlets" : 2,
					"outlettype" : [ "", "" ],
					"patching_rect" : [ 37.0, 401.0, 328.0, 120.0 ],
					"setminmax" : [ -100.0, 100.0 ],
					"setstyle" : 2,
					"size" : 3
				}

			}
, 			{
				"box" : 				{
					"fontname" : "Arial",
					"fontsize" : 12.0,
					"id" : "obj-41",
					"maxclass" : "newobj",
					"numinlets" : 1,
					"numoutlets" : 2,
					"outlettype" : [ "", "" ],
					"patching_rect" : [ 37.0, 367.0, 146.0, 20.0 ],
					"text" : "OSC-route /Xsens/11/pos"
				}

			}
, 			{
				"box" : 				{
					"id" : "obj-34",
					"maxclass" : "toggle",
					"numinlets" : 1,
					"numoutlets" : 1,
					"outlettype" : [ "int" ],
					"patching_rect" : [ 11.0, 14.0, 20.0, 20.0 ]
				}

			}
, 			{
				"box" : 				{
					"fontname" : "Arial",
					"fontsize" : 12.0,
					"id" : "obj-23",
					"maxclass" : "newobj",
					"numinlets" : 1,
					"numoutlets" : 2,
					"outlettype" : [ "", "" ],
					"patching_rect" : [ 11.0, 98.0, 91.0, 20.0 ],
					"text" : "mxj XsensUDP"
				}

			}
, 			{
				"box" : 				{
					"id" : "obj-35",
					"maxclass" : "button",
					"numinlets" : 1,
					"numoutlets" : 1,
					"outlettype" : [ "bang" ],
					"patching_rect" : [ 526.0, 477.0, 20.0, 20.0 ]
				}

			}
, 			{
				"box" : 				{
					"fontname" : "Arial",
					"fontsize" : 12.0,
					"id" : "obj-33",
					"maxclass" : "newobj",
					"numinlets" : 1,
					"numoutlets" : 2,
					"outlettype" : [ "", "" ],
					"patching_rect" : [ 526.0, 504.0, 132.0, 20.0 ],
					"text" : "mxj quickie XsensUDP"
				}

			}
 ],
		"lines" : [ 			{
				"patchline" : 				{
					"destination" : [ "obj-1", 0 ],
					"hidden" : 0,
					"midpoints" : [  ],
					"source" : [ "obj-20", 0 ]
				}

			}
, 			{
				"patchline" : 				{
					"destination" : [ "obj-20", 0 ],
					"hidden" : 0,
					"midpoints" : [ 20.5, 170.0, 46.5, 170.0 ],
					"source" : [ "obj-23", 0 ]
				}

			}
, 			{
				"patchline" : 				{
					"destination" : [ "obj-41", 0 ],
					"hidden" : 0,
					"midpoints" : [ 20.5, 354.0, 46.5, 354.0 ],
					"source" : [ "obj-23", 0 ]
				}

			}
, 			{
				"patchline" : 				{
					"destination" : [ "obj-23", 0 ],
					"hidden" : 0,
					"midpoints" : [  ],
					"source" : [ "obj-34", 0 ]
				}

			}
, 			{
				"patchline" : 				{
					"destination" : [ "obj-33", 0 ],
					"hidden" : 0,
					"midpoints" : [  ],
					"source" : [ "obj-35", 0 ]
				}

			}
, 			{
				"patchline" : 				{
					"destination" : [ "obj-137", 0 ],
					"hidden" : 0,
					"midpoints" : [  ],
					"source" : [ "obj-41", 0 ]
				}

			}
 ]
	}

}
